<?xml version="1.0" encoding="UTF-8"?>
<!-- Generator: Adobe Illustrator 25.2.0, SVG Export Plug-In . SVG Version: 6.00 Build 0)  -->
<svg xmlns="http://www.w3.org/2000/svg" xmlns:xlink="http://www.w3.org/1999/xlink" version="1.1" id="Layer_1" x="0px" y="0px" viewBox="0 0 154.1 128" style="enable-background:new 0 0 154.1 128;" xml:space="preserve">
<style type="text/css">
	.st0{fill:#1D376A;}
	.st1{fill:#FBB964;}
</style>
<g>
	<g>
		<path class="st0" d="M97.3,92.5c-2.7,0.7-5.3,1.4-8,2.1c0-14.1,0-28.2,0-42.3c2.7-1,5.3-2,8-3C97.3,63.7,97.3,78.1,97.3,92.5z"></path>
		<path class="st0" d="M108.6,89.4c-1.8,0.5-3.6,1-5.5,1.5c0-14.6,0-29.1,0-43.7c1.8-0.7,3.6-1.5,5.4-2.2    C108.6,59.8,108.6,74.6,108.6,89.4z"></path>
		<path class="st1" d="M114.4,87.8c1.1-0.3,2.3-0.6,3.4-0.9c0-15.2,0-30.4,0-45.5c-1.1,0.5-2.3,0.9-3.4,1.4    C114.4,57.8,114.4,72.8,114.4,87.8z"></path>
		<path class="st0" d="M57.1,92.6c2.7,0.7,5.3,1.4,8,2.1c0-14.2,0-28.3,0-42.5c-2.7-1-5.3-2-8-3.1C57.1,63.6,57.1,78.1,57.1,92.6z"></path>
		<path class="st0" d="M45.8,89.5c1.8,0.5,3.6,1,5.5,1.5c0-14.7,0-29.3,0-44c-1.8-0.7-3.7-1.5-5.5-2.2    C45.8,59.7,45.8,74.6,45.8,89.5z"></path>
		<path class="st1" d="M39.8,87.8c-1.1-0.3-2.3-0.6-3.4-0.9c0-15.2-0.1-30.5-0.1-45.7c1.2,0.4,2.4,0.9,3.5,1.3    C39.8,57.7,39.8,72.7,39.8,87.8z"></path>
		<path class="st0" d="M117.8,98c-13.6,0-27.2,0-40.8,0c13.6-2.4,27.2-4.8,40.8-7.2C117.8,93.2,117.8,95.6,117.8,98z"></path>
		<path class="st0" d="M36.3,98c13.6,0,27.2,0,40.8,0c-13.6-2.4-27.2-4.8-40.8-7.2C36.3,93.2,36.3,95.6,36.3,98z"></path>
		<path class="st0" d="M118,22.9C104.3,28,90.7,33.1,77,38.2C63.4,33,49.9,27.7,36.3,22.5c0,4.3,0,8.6,0,12.9    c11.5,4.4,23,8.9,34.5,13.3v45.6v0.1v1.9L77,98l6.5-1.7v-1.9h0V48.6c11.5-4.4,23-8.8,34.4-13.2C118,31.3,118,27.1,118,22.9z"></path>
		<g>
			<g>
				<path class="st1" d="M102.8,29.6c0-1-0.6-1.8-1.5-2.1V15.9l-1.5,0.6v11c-0.9,0.3-1.5,1.1-1.5,2.1c0,0.9,0.6,1.7,1.4,2l-1.4,8.5      h4.4l-1.4-8.5C102.3,31.3,102.8,30.5,102.8,29.6z"></path>
			</g>
		</g>
		<g>
			<g>
				<path class="st0" d="M117.9,16.6C104.3,21.8,90.7,27,77.1,32.2C63.5,27,49.9,21.7,36.3,16.5c13.6-4.7,27.1-9.3,40.7-14      C90.6,7.2,104.2,11.9,117.9,16.6z"></path>
			</g>
		</g>
	</g>
	<g>
		<g>
			<g>
				<path class="st0" d="M30.2,105.8h-3.6v9.8h-2.9v-9.8h-3.6v-2.3h10.1V105.8z"></path>
				<path class="st0" d="M35.2,115.6h-2.9v-12.1h2.9V115.6z"></path>
				<path class="st0" d="M41.9,111.1l-1.2,1.3v3.2h-2.9v-12.1h2.9v5.3l1-1.5l2.6-3.8h3.6l-4.1,5.3l4.1,6.7h-3.5L41.9,111.1z"></path>
				<path class="st0" d="M59.3,109.9c0,1.2-0.2,2.2-0.7,3.1c-0.4,0.9-1.1,1.6-1.9,2.1c-0.8,0.5-1.7,0.7-2.8,0.7s-1.9-0.2-2.7-0.7      c-0.8-0.5-1.4-1.2-1.9-2c-0.4-0.9-0.7-1.9-0.7-3v-0.7c0-1.2,0.2-2.2,0.7-3.1s1.1-1.6,1.9-2.1c0.8-0.5,1.7-0.7,2.8-0.7      c1,0,1.9,0.2,2.7,0.7c0.8,0.5,1.4,1.2,1.9,2.1c0.4,0.9,0.7,1.9,0.7,3.1V109.9z M56.3,109.3c0-1.2-0.2-2.1-0.6-2.7      c-0.4-0.6-1-0.9-1.7-0.9c-1.5,0-2.2,1.1-2.3,3.3l0,0.9c0,1.2,0.2,2.1,0.6,2.7c0.4,0.6,1,1,1.8,1c0.7,0,1.3-0.3,1.7-0.9      c0.4-0.6,0.6-1.5,0.6-2.7V109.3z"></path>
				<path class="st0" d="M71.8,112.4c0-0.4-0.2-0.8-0.5-1c-0.3-0.2-0.8-0.5-1.6-0.7c-0.8-0.3-1.4-0.5-1.9-0.7      c-1.6-0.8-2.4-1.8-2.4-3.2c0-0.7,0.2-1.3,0.6-1.8c0.4-0.5,0.9-0.9,1.7-1.2c0.7-0.3,1.5-0.4,2.4-0.4c0.9,0,1.6,0.2,2.3,0.5      c0.7,0.3,1.2,0.8,1.6,1.3c0.4,0.6,0.6,1.2,0.6,2h-2.9c0-0.5-0.2-0.9-0.5-1.1c-0.3-0.3-0.7-0.4-1.2-0.4c-0.5,0-0.9,0.1-1.2,0.3      c-0.3,0.2-0.5,0.5-0.5,0.9c0,0.3,0.2,0.6,0.5,0.8c0.3,0.3,0.9,0.5,1.8,0.8c0.8,0.3,1.5,0.6,2.1,0.9c1.3,0.8,2,1.8,2,3.1      c0,1.1-0.4,1.9-1.2,2.5c-0.8,0.6-1.9,0.9-3.3,0.9c-1,0-1.9-0.2-2.7-0.5c-0.8-0.4-1.4-0.8-1.8-1.4c-0.4-0.6-0.6-1.3-0.6-2.1h2.9      c0,0.6,0.2,1.1,0.5,1.4c0.3,0.3,0.9,0.5,1.6,0.5c0.5,0,0.9-0.1,1.1-0.3C71.7,113.1,71.8,112.8,71.8,112.4z"></path>
				<path class="st0" d="M86.6,111.6c0,0.8-0.3,1.6-0.7,2.2c-0.4,0.6-1,1.1-1.7,1.5c-0.8,0.4-1.6,0.5-2.6,0.5      c-1.6,0-2.8-0.5-3.8-1.6c-0.9-1-1.4-2.5-1.4-4.4v-0.6c0-1.2,0.2-2.2,0.6-3.1c0.4-0.9,1-1.6,1.8-2.1c0.8-0.5,1.7-0.7,2.7-0.7      c1.5,0,2.6,0.4,3.5,1.2c0.9,0.8,1.4,1.8,1.5,3.2h-2.9c0-0.7-0.2-1.3-0.6-1.6c-0.3-0.3-0.9-0.5-1.6-0.5c-0.7,0-1.3,0.3-1.6,0.8      c-0.3,0.5-0.5,1.4-0.5,2.6v0.9c0,1.3,0.2,2.2,0.5,2.8c0.3,0.6,0.9,0.8,1.7,0.8c0.7,0,1.2-0.2,1.5-0.5c0.4-0.3,0.5-0.8,0.6-1.5      H86.6z"></path>
				<path class="st0" d="M98.7,115.6h-2.9v-5h-4.3v5h-2.9v-12.1h2.9v4.8h4.3v-4.8h2.9V115.6z"></path>
				<path class="st0" d="M111.4,109.9c0,1.2-0.2,2.2-0.7,3.1c-0.4,0.9-1.1,1.6-1.9,2.1c-0.8,0.5-1.7,0.7-2.8,0.7s-1.9-0.2-2.7-0.7      c-0.8-0.5-1.4-1.2-1.9-2c-0.4-0.9-0.7-1.9-0.7-3v-0.7c0-1.2,0.2-2.2,0.7-3.1c0.4-0.9,1.1-1.6,1.9-2.1c0.8-0.5,1.7-0.7,2.8-0.7      c1,0,1.9,0.2,2.7,0.7c0.8,0.5,1.4,1.2,1.9,2.1c0.4,0.9,0.7,1.9,0.7,3.1V109.9z M108.4,109.3c0-1.2-0.2-2.1-0.6-2.7      c-0.4-0.6-1-0.9-1.7-0.9c-1.5,0-2.2,1.1-2.3,3.3l0,0.9c0,1.2,0.2,2.1,0.6,2.7c0.4,0.6,1,1,1.8,1c0.7,0,1.3-0.3,1.7-0.9      c0.4-0.6,0.6-1.5,0.6-2.7V109.3z"></path>
				<path class="st0" d="M123.7,109.9c0,1.2-0.2,2.2-0.7,3.1c-0.4,0.9-1.1,1.6-1.9,2.1c-0.8,0.5-1.7,0.7-2.8,0.7s-1.9-0.2-2.7-0.7      c-0.8-0.5-1.4-1.2-1.9-2c-0.4-0.9-0.7-1.9-0.7-3v-0.7c0-1.2,0.2-2.2,0.7-3.1c0.4-0.9,1.1-1.6,1.9-2.1c0.8-0.5,1.7-0.7,2.8-0.7      c1,0,1.9,0.2,2.7,0.7c0.8,0.5,1.4,1.2,1.9,2.1c0.4,0.9,0.7,1.9,0.7,3.1V109.9z M120.8,109.3c0-1.2-0.2-2.1-0.6-2.7      c-0.4-0.6-1-0.9-1.7-0.9c-1.5,0-2.2,1.1-2.3,3.3l0,0.9c0,1.2,0.2,2.1,0.6,2.7c0.4,0.6,1,1,1.8,1c0.7,0,1.3-0.3,1.7-0.9      c0.4-0.6,0.6-1.5,0.6-2.7V109.3z"></path>
				<path class="st0" d="M128.8,113.4h5.1v2.2h-8v-12.1h2.9V113.4z"></path>
			</g>
		</g>
		<g>
			<path class="st0" d="M22.5,123.7h-1.7v1.7h-0.5v-4h2.4v0.4h-1.9v1.4h1.7V123.7z"></path>
			<path class="st0" d="M27.1,123.6c0,0.4-0.1,0.7-0.2,1c-0.1,0.3-0.3,0.5-0.6,0.7c-0.2,0.2-0.5,0.2-0.8,0.2c-0.3,0-0.6-0.1-0.8-0.2     c-0.2-0.2-0.4-0.4-0.6-0.7c-0.1-0.3-0.2-0.6-0.2-1v-0.3c0-0.4,0.1-0.7,0.2-1c0.1-0.3,0.3-0.5,0.6-0.7c0.2-0.2,0.5-0.2,0.8-0.2     c0.3,0,0.6,0.1,0.8,0.2c0.2,0.2,0.4,0.4,0.6,0.7c0.1,0.3,0.2,0.6,0.2,1V123.6z M26.6,123.3c0-0.5-0.1-0.8-0.3-1.1     c-0.2-0.3-0.5-0.4-0.8-0.4c-0.3,0-0.6,0.1-0.8,0.4c-0.2,0.3-0.3,0.6-0.3,1v0.3c0,0.5,0.1,0.8,0.3,1.1c0.2,0.3,0.5,0.4,0.8,0.4     c0.3,0,0.6-0.1,0.8-0.4c0.2-0.2,0.3-0.6,0.3-1.1V123.3z"></path>
			<path class="st0" d="M30.1,123.8h-0.9v1.6h-0.5v-4H30c0.4,0,0.8,0.1,1,0.3c0.2,0.2,0.4,0.5,0.4,0.9c0,0.2-0.1,0.5-0.2,0.6     c-0.1,0.2-0.3,0.3-0.6,0.4l0.9,1.7v0H31L30.1,123.8z M29.2,123.4H30c0.3,0,0.5-0.1,0.6-0.2c0.2-0.1,0.2-0.3,0.2-0.5     c0-0.2-0.1-0.4-0.2-0.6c-0.1-0.1-0.4-0.2-0.6-0.2h-0.8V123.4z"></path>
			<path class="st0" d="M33.5,121.5l1.3,3.2l1.3-3.2h0.7v4h-0.5v-1.5l0-1.7l-1.3,3.2h-0.4l-1.3-3.2l0.1,1.7v1.5h-0.5v-4H33.5z"></path>
			<path class="st0" d="M40.7,124.4H39l-0.4,1h-0.5l1.5-4h0.5l1.5,4h-0.5L40.7,124.4z M39.2,124h1.3l-0.7-1.8L39.2,124z"></path>
			<path class="st0" d="M45.3,121.9H44v3.5h-0.5v-3.5h-1.3v-0.4h3.1V121.9z"></path>
			<path class="st0" d="M47.2,125.4h-0.5v-4h0.5V125.4z"></path>
			<path class="st0" d="M51.9,123.6c0,0.4-0.1,0.7-0.2,1c-0.1,0.3-0.3,0.5-0.6,0.7c-0.2,0.2-0.5,0.2-0.8,0.2c-0.3,0-0.6-0.1-0.8-0.2     c-0.2-0.2-0.4-0.4-0.6-0.7c-0.1-0.3-0.2-0.6-0.2-1v-0.3c0-0.4,0.1-0.7,0.2-1c0.1-0.3,0.3-0.5,0.6-0.7c0.2-0.2,0.5-0.2,0.8-0.2     c0.3,0,0.6,0.1,0.8,0.2c0.2,0.2,0.4,0.4,0.6,0.7c0.1,0.3,0.2,0.6,0.2,1V123.6z M51.4,123.3c0-0.5-0.1-0.8-0.3-1.1     c-0.2-0.3-0.5-0.4-0.8-0.4c-0.3,0-0.6,0.1-0.8,0.4s-0.3,0.6-0.3,1v0.3c0,0.5,0.1,0.8,0.3,1.1c0.2,0.3,0.5,0.4,0.8,0.4     c0.3,0,0.6-0.1,0.8-0.4c0.2-0.2,0.3-0.6,0.3-1.1V123.3z"></path>
			<path class="st0" d="M56.5,125.4h-0.5l-2-3v3h-0.5v-4H54l2,3.1v-3.1h0.5V125.4z"></path>
			<path class="st0" d="M59.3,123.7c-0.4-0.1-0.8-0.3-1-0.5c-0.2-0.2-0.3-0.4-0.3-0.7c0-0.3,0.1-0.6,0.4-0.8c0.2-0.2,0.6-0.3,1-0.3     c0.3,0,0.5,0.1,0.7,0.2c0.2,0.1,0.4,0.2,0.5,0.4s0.2,0.4,0.2,0.6h-0.5c0-0.2-0.1-0.4-0.2-0.6c-0.2-0.1-0.4-0.2-0.6-0.2     c-0.3,0-0.5,0.1-0.6,0.2c-0.1,0.1-0.2,0.3-0.2,0.5c0,0.2,0.1,0.3,0.2,0.4c0.1,0.1,0.4,0.2,0.7,0.3c0.3,0.1,0.6,0.2,0.8,0.3     c0.2,0.1,0.3,0.2,0.4,0.4c0.1,0.1,0.1,0.3,0.1,0.5c0,0.3-0.1,0.6-0.4,0.8c-0.2,0.2-0.6,0.3-1,0.3c-0.3,0-0.5-0.1-0.8-0.2     c-0.2-0.1-0.4-0.2-0.5-0.4c-0.1-0.2-0.2-0.4-0.2-0.6h0.5c0,0.2,0.1,0.4,0.3,0.6c0.2,0.1,0.4,0.2,0.7,0.2c0.3,0,0.5-0.1,0.6-0.2     c0.1-0.1,0.2-0.3,0.2-0.5s-0.1-0.3-0.2-0.4C59.9,123.9,59.7,123.8,59.3,123.7z"></path>
			<path class="st0" d="M66.4,123.6h-1.7v1.4h2v0.4h-2.5v-4h2.5v0.4h-2v1.3h1.7V123.6z"></path>
			<path class="st0" d="M70.8,121.9h-1.3v3.5H69v-3.5h-1.3v-0.4h3.1V121.9z"></path>
			<path class="st0" d="M75.2,123.7c-0.4-0.1-0.8-0.3-1-0.5c-0.2-0.2-0.3-0.4-0.3-0.7c0-0.3,0.1-0.6,0.4-0.8c0.2-0.2,0.6-0.3,1-0.3     c0.3,0,0.5,0.1,0.7,0.2c0.2,0.1,0.4,0.2,0.5,0.4c0.1,0.2,0.2,0.4,0.2,0.6h-0.5c0-0.2-0.1-0.4-0.2-0.6c-0.2-0.1-0.4-0.2-0.6-0.2     c-0.3,0-0.5,0.1-0.6,0.2c-0.1,0.1-0.2,0.3-0.2,0.5c0,0.2,0.1,0.3,0.2,0.4c0.1,0.1,0.4,0.2,0.7,0.3c0.3,0.1,0.6,0.2,0.8,0.3     c0.2,0.1,0.3,0.2,0.4,0.4c0.1,0.1,0.1,0.3,0.1,0.5c0,0.3-0.1,0.6-0.4,0.8c-0.2,0.2-0.6,0.3-1,0.3c-0.3,0-0.5-0.1-0.8-0.2     c-0.2-0.1-0.4-0.2-0.5-0.4c-0.1-0.2-0.2-0.4-0.2-0.6h0.5c0,0.2,0.1,0.4,0.3,0.6c0.2,0.1,0.4,0.2,0.7,0.2c0.3,0,0.5-0.1,0.6-0.2     c0.1-0.1,0.2-0.3,0.2-0.5s-0.1-0.3-0.2-0.4C75.8,123.9,75.5,123.8,75.2,123.7z"></path>
			<path class="st0" d="M81.1,123.6c0,0.4-0.1,0.7-0.2,1c-0.1,0.3-0.3,0.5-0.6,0.7c-0.2,0.2-0.5,0.2-0.8,0.2c-0.3,0-0.6-0.1-0.8-0.2     c-0.2-0.2-0.4-0.4-0.6-0.7c-0.1-0.3-0.2-0.6-0.2-1v-0.3c0-0.4,0.1-0.7,0.2-1c0.1-0.3,0.3-0.5,0.6-0.7c0.2-0.2,0.5-0.2,0.8-0.2     c0.3,0,0.6,0.1,0.8,0.2c0.2,0.2,0.4,0.4,0.6,0.7c0.1,0.3,0.2,0.6,0.2,1V123.6z M80.6,123.3c0-0.5-0.1-0.8-0.3-1.1     c-0.2-0.3-0.5-0.4-0.8-0.4c-0.3,0-0.6,0.1-0.8,0.4s-0.3,0.6-0.3,1v0.3c0,0.5,0.1,0.8,0.3,1.1c0.2,0.3,0.5,0.4,0.8,0.4     c0.3,0,0.6-0.1,0.8-0.4c0.2-0.2,0.3-0.6,0.3-1.1V123.3z"></path>
			<path class="st0" d="M85.4,121.5v2.7c0,0.4-0.1,0.7-0.4,0.9c-0.2,0.2-0.5,0.4-0.9,0.4l-0.1,0c-0.4,0-0.8-0.1-1-0.4     c-0.3-0.2-0.4-0.6-0.4-1v-2.7H83v2.7c0,0.3,0.1,0.5,0.2,0.7s0.4,0.2,0.7,0.2c0.3,0,0.5-0.1,0.7-0.2c0.2-0.2,0.2-0.4,0.2-0.7v-2.7     H85.4z"></path>
			<path class="st0" d="M89.7,121.9h-1.3v3.5h-0.5v-3.5h-1.3v-0.4h3.1V121.9z"></path>
			<path class="st0" d="M91.6,125.4h-0.5v-4h0.5V125.4z"></path>
			<path class="st0" d="M95.5,123.6h-1.7v1.4h2v0.4h-2.5v-4h2.5v0.4h-2v1.3h1.7V123.6z"></path>
			<path class="st0" d="M100.2,125.4h-0.5l-2-3v3h-0.5v-4h0.5l2,3.1v-3.1h0.5V125.4z"></path>
			<path class="st0" d="M105,123.7c-0.4-0.1-0.8-0.3-1-0.5c-0.2-0.2-0.3-0.4-0.3-0.7c0-0.3,0.1-0.6,0.4-0.8c0.2-0.2,0.6-0.3,1-0.3     c0.3,0,0.5,0.1,0.7,0.2c0.2,0.1,0.4,0.2,0.5,0.4c0.1,0.2,0.2,0.4,0.2,0.6H106c0-0.2-0.1-0.4-0.2-0.6c-0.2-0.1-0.4-0.2-0.6-0.2     c-0.3,0-0.5,0.1-0.6,0.2c-0.1,0.1-0.2,0.3-0.2,0.5c0,0.2,0.1,0.3,0.2,0.4c0.1,0.1,0.4,0.2,0.7,0.3c0.3,0.1,0.6,0.2,0.8,0.3     c0.2,0.1,0.3,0.2,0.4,0.4c0.1,0.1,0.1,0.3,0.1,0.5c0,0.3-0.1,0.6-0.4,0.8c-0.2,0.2-0.6,0.3-1,0.3c-0.3,0-0.5-0.1-0.8-0.2     c-0.2-0.1-0.4-0.2-0.5-0.4c-0.1-0.2-0.2-0.4-0.2-0.6h0.5c0,0.2,0.1,0.4,0.3,0.6c0.2,0.1,0.4,0.2,0.7,0.2c0.3,0,0.5-0.1,0.6-0.2     c0.1-0.1,0.2-0.3,0.2-0.5s-0.1-0.3-0.2-0.4C105.6,123.9,105.4,123.8,105,123.7z"></path>
			<path class="st0" d="M110.8,124.2c0,0.4-0.2,0.7-0.5,1c-0.3,0.2-0.6,0.3-1,0.3c-0.5,0-0.8-0.2-1.1-0.5c-0.3-0.3-0.4-0.8-0.4-1.3     v-0.4c0-0.4,0.1-0.7,0.2-1c0.1-0.3,0.3-0.5,0.6-0.6c0.2-0.1,0.5-0.2,0.8-0.2c0.4,0,0.8,0.1,1,0.4c0.3,0.2,0.4,0.6,0.4,1h-0.5     c0-0.3-0.1-0.5-0.3-0.7c-0.2-0.1-0.4-0.2-0.6-0.2c-0.3,0-0.6,0.1-0.8,0.4c-0.2,0.2-0.3,0.6-0.3,1.1v0.4c0,0.4,0.1,0.8,0.3,1     c0.2,0.3,0.4,0.4,0.8,0.4c0.3,0,0.5-0.1,0.7-0.2c0.2-0.1,0.3-0.4,0.3-0.7H110.8z"></path>
			<path class="st0" d="M115.3,123.6c0,0.4-0.1,0.7-0.2,1c-0.1,0.3-0.3,0.5-0.6,0.7c-0.2,0.2-0.5,0.2-0.8,0.2     c-0.3,0-0.6-0.1-0.8-0.2c-0.2-0.2-0.4-0.4-0.6-0.7c-0.1-0.3-0.2-0.6-0.2-1v-0.3c0-0.4,0.1-0.7,0.2-1c0.1-0.3,0.3-0.5,0.6-0.7     c0.2-0.2,0.5-0.2,0.8-0.2c0.3,0,0.6,0.1,0.8,0.2c0.2,0.2,0.4,0.4,0.6,0.7s0.2,0.6,0.2,1V123.6z M114.8,123.3     c0-0.5-0.1-0.8-0.3-1.1c-0.2-0.3-0.5-0.4-0.8-0.4c-0.3,0-0.6,0.1-0.8,0.4c-0.2,0.3-0.3,0.6-0.3,1v0.3c0,0.5,0.1,0.8,0.3,1.1     c0.2,0.3,0.5,0.4,0.8,0.4c0.3,0,0.6-0.1,0.8-0.4c0.2-0.2,0.3-0.6,0.3-1.1V123.3z"></path>
			<path class="st0" d="M117.4,125h1.9v0.4h-2.4v-4h0.5V125z"></path>
			<path class="st0" d="M122.8,124.4h-1.7l-0.4,1h-0.5l1.5-4h0.5l1.5,4h-0.5L122.8,124.4z M121.3,124h1.3l-0.7-1.8L121.3,124z"></path>
			<path class="st0" d="M125.6,125.4h-0.5v-4h0.5V125.4z"></path>
			<path class="st0" d="M128.7,123.8h-0.9v1.6h-0.5v-4h1.3c0.4,0,0.8,0.1,1,0.3s0.4,0.5,0.4,0.9c0,0.2-0.1,0.5-0.2,0.6     c-0.1,0.2-0.3,0.3-0.6,0.4l0.9,1.7v0h-0.6L128.7,123.8z M127.8,123.4h0.8c0.3,0,0.5-0.1,0.6-0.2c0.2-0.1,0.2-0.3,0.2-0.5     c0-0.2-0.1-0.4-0.2-0.6c-0.1-0.1-0.4-0.2-0.6-0.2h-0.8V123.4z"></path>
			<path class="st0" d="M133.7,123.6H132v1.4h2v0.4h-2.5v-4h2.5v0.4h-2v1.3h1.7V123.6z"></path>
		</g>
	</g>
</g>
</svg>
